<?xml version="1.0" encoding="utf-8"?>
<!-- Generator: Adobe Illustrator 27.0.0, SVG Export Plug-In . SVG Version: 6.00 Build 0)  -->
<svg version="1.1" xmlns="http://www.w3.org/2000/svg" xmlns:xlink="http://www.w3.org/1999/xlink" x="0px" y="0px"
	 viewBox="0 0 2952.59 1773.31" style="enable-background:new 0 0 2952.59 1773.31;" xml:space="preserve">
<style type="text/css">
	.st0{fill:#C7EBFF;}
	.st1{fill:#6BB2E3;}
	.st2{fill:#425899;}
	.st3{fill:#A3CFFF;}
	.st4{fill:#A1D3FF;}
	.st5{fill:#61B8FF;}
	.st6{fill:#123E80;}
	.st7{fill:#9EDDFF;}
	.st8{fill:#0D192B;}
	.st9{fill:#1E62CC;}
	.st10{fill:#1A56B3;}
	.st11{fill:#4A82DB;}
	.st12{fill:#AAE0FF;}
	.st13{fill:#F7A594;}
	.st14{fill:#E6836F;}
	.st15{fill:#73382A;}
	.st16{fill:#A65B4A;}
	.st17{fill:#FFFFFF;}
	.st18{fill:#1E1E1E;}
	.st19{fill:#1951A6;}
	.st20{fill:#D9F1FF;}
	.st21{fill:#F7B28A;}
	.st22{clip-path:url(#SVGID_00000151512831914293168040000009339026046432744597_);}
	.st23{fill:#1B658F;}
	.st24{fill:#2997D6;}
	.st25{fill:#2B7EAB;}
	.st26{fill:#69BFF0;}
	.st27{fill:#BAE7FF;}
	.st28{fill:#66A1FF;}
	.st29{fill:#ADADAD;}
	.st30{fill:#474747;}
	.st31{fill:#2B2B2B;}
	.st32{fill:#D9F3FF;}
	.st33{fill:#80B2FF;}
	.st34{fill:#0E0E0E;}
	.st35{fill:#FFA599;}
	.st36{fill:#DBF2FF;}
	.st37{fill:#2A518C;}
	.st38{fill:#FD5655;}
	.st39{fill:#E64847;}
	.st40{fill:#E87C5D;}
	.st41{fill:#BD4A31;}
</style>
<g id="BG">
</g>
<g id="room">
</g>
<g id="characters">
	<path class="st0" d="M206.8,1760.11c234.38-314.21,82.19-592.78,7.06-965.38C29.75,201.31,746.59-277.71,1463.47,185.92
		c444.72,287.61,859.94-3.5,1193.49,298.71c265.26,240.34,1.11,747.5-4.62,976.05c-4.52,180.16,150.55,299.43,150.55,299.43H206.8z"
		/>
	<path id="shadow" d="M2947.37,1771.94H7.96c-2.88,0-5.22-2.34-5.22-5.22l0,0c0-2.88,2.34-5.22,5.22-5.22h2939.42
		c2.88,0,5.22,2.34,5.22,5.22l0,0C2952.59,1769.61,2950.25,1771.94,2947.37,1771.94z"/>
	<g id="plant_2_">
		<g>
			<g>
				<path class="st1" d="M2492.69,1678.05L2492.69,1678.05c67.19,0,121.66-54.47,121.66-121.66v-165.85h-243.32v165.85
					C2371.03,1623.59,2425.5,1678.05,2492.69,1678.05z"/>
				
					<rect x="2614.34" y="1515.88" transform="matrix(-1 -1.224647e-16 1.224647e-16 -1 5242.1714 3289.1946)" class="st2" width="13.48" height="257.43"/>
				
					<rect x="2357.54" y="1515.88" transform="matrix(-1 -1.224647e-16 1.224647e-16 -1 4728.5693 3289.1946)" class="st2" width="13.48" height="257.43"/>
				
					<rect x="2460.73" y="1515.88" transform="matrix(-1 -1.224647e-16 1.224647e-16 -1 4934.9424 3289.1946)" class="st2" width="13.48" height="257.43"/>
			</g>
			
				<rect x="2492.37" y="1556.08" transform="matrix(-1.836970e-16 1 -1 -1.836970e-16 4183.9116 -814.3178)" class="st2" width="13.48" height="257.43"/>
		</g>
		<g>
			<path class="st3" d="M2452.21,1077.25c22.73,12.1,4.77,41.82,14.08,69.99c9.31,28.18,46.71,27.49,32.58,77.91
				c-8.7,31.05-39.52,11.59-38.82,51.96c0.71,40.37,15.99,39.38,4.13,60.14c-20.68,36.18-91.18,15.94-91.74-24.46
				c-0.56-40.4,33.26-54.15,4.69-72.94c-28.57-18.79-40-27.34-21.2-54.21c23.28-33.26,59.37-32.25,49.27-58.21
				C2395.12,1101.48,2422.15,1061.25,2452.21,1077.25z"/>
			<path class="st2" d="M2440.2,1389.63l-5.92,1.7c-40.23-140.2-2.56-272.21-2.18-273.52l5.91,1.73
				C2437.63,1120.84,2400.48,1251.21,2440.2,1389.63z"/>
		</g>
		<g>
			<path class="st4" d="M2753.87,1047.83c16.77,30.11-25,50.49-34.99,88.93c-9.99,38.44,34.78,49.49-17.71,95.93
				c-32.33,28.6-40.27,12.19-49.53,72.88c-8.15,53.43-50.94,5.23-79.35,37.82c-36.66,42.05-101.8-42.63-73.09-88.47
				c28.71-45.83,65.51-36.3,47.02-78.17c-18.49-41.88-0.79-75.08,39.87-91.64c50.32-20.5,71,21.56,78.5-14.97
				C2672.08,1033.62,2731.68,1008.01,2753.87,1047.83z"/>
			<path class="st2" d="M2513.56,1390.37c55.87-184.6,192.28-304.12,193.65-305.3l-5.39-6.24c-1.39,1.2-139.59,122.29-196.15,309.15
				L2513.56,1390.37z"/>
		</g>
	</g>
	<g id="doctor">
		<g>
			<path class="st5" d="M441.92,589.38c2.5,15.15,10.92,28.89,22.48,38.8c11.56,9.91,26.31,16.08,41.46,16.08h142.15
				c20.03,0,35.78-10.76,42.71-26.79c3.55-8.22,4.79-17.81,3.1-28.08c-2.5-15.15-10.92-28.89-22.44-38.8
				c-11.6-9.91-26.31-16.08-41.46-16.08H487.77c-7.01,0-13.5,1.33-19.26,3.71C449.33,546.19,438.09,566.1,441.92,589.38z"/>
			<path class="st6" d="M640.82,699.43L640.82,699.43c5.44,0,9.31-5.31,7.64-10.49l-19.09-59.24c-1.07-3.32-4.15-5.56-7.64-5.56l0,0
				c-5.44,0-9.31,5.31-7.64,10.49l19.09,59.24C634.25,697.18,637.33,699.43,640.82,699.43z"/>
			<path class="st6" d="M546.68,699.43L546.68,699.43c5.44,0,9.31-5.31,7.64-10.49l-19.09-59.24c-1.07-3.32-4.15-5.56-7.64-5.56l0,0
				c-5.44,0-9.31,5.31-7.64,10.49l19.09,59.24C540.11,697.18,543.2,699.43,546.68,699.43z"/>
			<path class="st7" d="M465.45,566.22c2.5,15.15,10.92,28.89,22.48,38.84c11.56,9.91,26.31,16.08,41.46,16.08h142.15
				c6.97,0,13.42-1.29,19.18-3.67c3.55-8.22,4.79-17.81,3.1-28.08c-2.5-15.15-10.92-28.89-22.44-38.8
				c-11.6-9.91-26.31-16.08-41.46-16.08H487.77c-7.01,0-13.5,1.33-19.26,3.71C465.01,546.43,463.76,555.98,465.45,566.22z"/>
		</g>
		<g>
			<g>
				<g>
					<g>
						<rect x="1045.18" y="1684.79" class="st8" width="26.79" height="49.86"/>
						<rect x="844.28" y="1684.79" class="st8" width="26.79" height="49.86"/>
						<rect x="619.74" y="1684.79" class="st8" width="26.79" height="49.86"/>
						<g>
							<g>
								<ellipse class="st8" cx="639.78" cy="1734.49" rx="20.43" ry="32.3"/>
								<ellipse class="st8" cx="659.58" cy="1734.49" rx="20.43" ry="32.3"/>
								<path class="st8" d="M667.46,1764.18c-8.5,6.63-32.26,3.63-35.58,0.2l-0.15-59.59c6.38-5.58,28.87-5.39,35.72-0.31
									L667.46,1764.18z"/>
								<ellipse class="st9" cx="661.51" cy="1733.61" rx="14" ry="22.14"/>
							</g>
							<ellipse class="st8" cx="660.02" cy="1734.25" rx="8.53" ry="13.49"/>
						</g>
						<g>
							<g>
								<ellipse class="st8" cx="853.64" cy="1734.49" rx="20.43" ry="32.3"/>
								<ellipse class="st8" cx="833.84" cy="1734.49" rx="20.43" ry="32.3"/>
								<path class="st8" d="M825.96,1764.18c8.5,6.63,32.26,3.63,35.58,0.2l0.15-59.59c-6.38-5.58-28.87-5.39-35.72-0.31
									L825.96,1764.18z"/>
								<ellipse class="st9" cx="831.91" cy="1733.61" rx="14" ry="22.14"/>
							</g>
							<ellipse class="st8" cx="833.39" cy="1734.25" rx="8.53" ry="13.49"/>
						</g>
						<g>
							<g>
								<ellipse class="st8" cx="1057.69" cy="1734.49" rx="20.43" ry="32.3"/>
								<ellipse class="st8" cx="1037.89" cy="1734.49" rx="20.43" ry="32.3"/>
								<path class="st8" d="M1030.01,1764.18c8.5,6.63,32.26,3.63,35.58,0.2l0.15-59.59c-6.38-5.58-28.87-5.39-35.72-0.31
									L1030.01,1764.18z"/>
								<ellipse class="st9" cx="1035.96" cy="1733.61" rx="14" ry="22.14"/>
							</g>
							<ellipse class="st8" cx="1037.45" cy="1734.25" rx="8.53" ry="13.49"/>
						</g>
						<rect x="842.11" y="1269.79" class="st8" width="39.02" height="406.4"/>
						<path class="st10" d="M1090.55,1689.7c0.05-0.34,0.31-0.66,0.31-1c0-21.51-106.37-38.95-237.58-38.95
							c-131.21,0-237.58,17.44-237.58,38.95c0,0.34,0.26,0.66,0.31,1H1090.55z"/>
						
							<rect x="829.2" y="1313.06" transform="matrix(-1 -1.224647e-16 1.224647e-16 -1 1721.8391 2703.4844)" class="st10" width="63.43" height="77.36"/>
						
							<rect x="829.2" y="1585.34" transform="matrix(-1 -1.224647e-16 1.224647e-16 -1 1721.8391 3248.0425)" class="st10" width="63.43" height="77.36"/>
					</g>
					<g>
						<path class="st11" d="M742.43,662.85v0.08c-0.84-0.08-1.68-0.08-2.52-0.08H742.43z"/>
						<g>
							<path class="st7" d="M441.48,701.25c0,3.86,0.46,7.84,1.43,11.95l131.48,508.19c0.59,2.47,1.3,4.9,2.22,7.29
								c9.73,38.73,45.02,65.65,85.05,64.56l137.45-3.56H1070c16.39,0,31.15-6.41,41.84-16.77c10.73-10.35,17.4-24.65,17.4-40.45
								c0-5.62-0.88-10.98-2.56-16.01c-7.59-23.18-31.4-39.03-58.27-39.03c0,0-121.82,3.31-157.32-30.81
								c-35.55-34.16-115.63-431.1-115.63-431.1c-6.79-28.21-35.34-51.27-64.56-52.57c-0.88-0.08-1.76-0.08-2.6-0.08
								c0,0-183.9-1.63-240.28-1.38c-4.28,0-7.84,0.04-10.52,0.08c-2.47,0.04-4.02,0.08-4.57,0.12c-0.13,0.04-0.17,0.04-0.17,0.04
								C453.72,665.92,441.48,681.43,441.48,701.25z M614.42,1175.28h3.44l1.55,6.75l-2.18-2.93L614.42,1175.28z"/>
						</g>
					</g>
					<path class="st10" d="M627.35,1289.86c-0.05,0.25-0.29,0.5-0.29,0.75c0,16.17,101.42,29.28,226.52,29.28
						c125.11,0,226.52-13.11,226.52-29.28c0-0.25-0.24-0.5-0.29-0.75H627.35z"/>
				</g>
			</g>
			<path class="st5" d="M441.48,701.25c0,3.86,0.46,7.84,1.43,11.95l131.48,508.19c0.59,2.47,1.3,4.9,2.22,7.29
				c9.73,38.73,45.02,65.65,85.05,64.56l137.45-3.56H1070c16.39,0,31.15-6.41,41.84-16.77c10.73-10.35,17.4-24.65,17.4-40.45
				c0-5.62-0.88-10.98-2.56-16.01c-15.51,40.35-468.27,43.19-499.75-9.06c-30.77-26.7-96.61-481.48-138.91-545.91
				c-4.28,0-7.84,0.04-10.52,0.08c-2.47,0.04-4.02,0.08-4.57,0.12c-0.13,0.04-0.17,0.04-0.17,0.04
				C453.72,665.92,441.48,681.43,441.48,701.25z"/>
		</g>
		<g>
			<path class="st12" d="M670.05,726.58c41.82-31.16,185.34-55.36,277.19-12.3c14.59,13.82,35.59,63.99,48.71,111.14l36.29,393.58
				H721.72L670.05,726.58z"/>
			<path class="st13" d="M836.55,744.84c-49.37,7.18-80.07-27.27-87.29-41.68l19.87-123.35l40.17,17.93
				c16.42,1.36,32.83,5.29,46.94,10.87l12.74,65.78l2.81,14.27C878.2,702.7,885.92,737.65,836.55,744.84z"/>
			<path class="st14" d="M781.98,611.14c1.61,15.26,21.69,77.11,88.35,70.68l-12.37-64.34L781.98,611.14z"/>
			<g>
				<g>
					<g>
						<path class="st13" d="M937.16,534.07c-2.28,20.05-7.84,63.86-15.57,82.19c-11.76,27.9-48.15,50.49-71.91,46.65
							c-26.8-6.52-58.95-27.06-72.14-50.83c-6.17-16.67-16.21-54.56-16.53-84.7c-0.67-62.86,53.72-98.28,105.51-92.41
							C918.31,440.84,944.28,471.57,937.16,534.07z"/>
						<path class="st15" d="M764.96,570.07c-4.03-21.99,12.41-24.6,22.64-5.05c2.23-14.75,0.57-60.84,19.25-69.42
							c21.24-10.11,88.38,20.9,139.29-5.03c0,0-6.58-70.73-110.49-66.51C713.4,442.82,764.96,570.07,764.96,570.07z"/>
						
							<ellipse transform="matrix(0.9547 -0.2977 0.2977 0.9547 -132.9532 253.5384)" class="st13" cx="766" cy="563.31" rx="18.75" ry="24.29"/>
					</g>
					<g>
						<path class="st16" d="M898.02,617.81c-3.98,0.73-10.99,4.05-17.92,7.72c-10.05,5.33-19.91,11.41-19.91,11.41
							s-29.75-17.99-28.93-46.86c0.4,0.44,0.81,0.87,1.23,1.3C855.6,615.2,898.02,617.81,898.02,617.81z"/>
						<path class="st17" d="M898.02,617.81c-3.98,0.73-10.99,4.05-17.92,7.72c-30.16-6.91-42.56-23.12-47.61-34.15
							C855.6,615.2,898.02,617.81,898.02,617.81z"/>
						<path class="st16" d="M896.42,603.82c-6.04-0.37-10.76-3.88-10.83-3.93c-0.54-0.41-0.65-1.18-0.24-1.72
							c0.41-0.54,1.18-0.65,1.72-0.24c0.4,0.3,9.84,7.28,18.4,0.67c4.7-3.63,3.48-6.06,0.2-12.55c-3.1-6.15-7.8-15.45-9.42-31.26
							c-0.07-0.68,0.42-1.28,1.1-1.35c0.67-0.07,1.28,0.42,1.35,1.1c1.58,15.36,6.15,24.41,9.17,30.4c3.38,6.69,5.41,10.73-0.9,15.6
							C903.43,603.29,899.73,604.02,896.42,603.82z"/>
						<g>
							<path class="st18" d="M863.62,543.15c-0.28,4.63-2.58,8.25-5.13,8.09c-2.55-0.16-4.39-4.03-4.1-8.66
								c0.28-4.63,2.58-8.25,5.13-8.09C862.07,534.64,863.9,538.52,863.62,543.15z"/>
							<path class="st18" d="M928.3,546.18c-0.26,4.21-2.35,7.52-4.67,7.37c-2.32-0.14-3.99-3.68-3.73-7.89
								c0.26-4.21,2.35-7.52,4.67-7.37C926.89,538.43,928.56,541.96,928.3,546.18z"/>
						</g>
					</g>
				</g>
				<path class="st15" d="M932.98,493.87c0,0,50.98-4.97,35.05-54.71c-15.79,16.06-31.85,8.21-31.85,8.21s18.73-23.47-12.24-57.83
					c-4.94,21.43-47.47,30.86-71.81,24.54c-38.55-10-77.57,3.8-81.71,41c0,0-25.23,6.15-16.44,56.29
					c38.95-1.37,56.19-36.88,84.92-42.03C867.63,464.21,892.08,499.66,932.98,493.87z"/>
				<path class="st16" d="M883.75,655.16c0,0-18.19,4.27-28.19,4.03c-13.2-0.31-34.07-7.62-34.07-7.62l34.65,18.53L883.75,655.16z"
					/>
			</g>
			<polygon class="st19" points="849.9,745.9 844.99,763.57 879.97,982.75 861.5,1018.36 828.57,983.02 834.01,763.84 
				826.07,752.14 835.35,738.85 			"/>
			<path class="st5" d="M870.86,682.18c-0.68,26.03-21,40.81-35.57,55.64c-43.21-11.28-75.98-37.75-85.56-62.27l-20.38,20.24
				c3.63,31.65,28.99,64.36,67.55,97.73c5.88-16.98,14.91-32.59,40.6-46.63l57.82,16.46c3.27-22.49,5.82-43.45-7.32-69.88
				L870.86,682.18z"/>
		</g>
		<path class="st15" d="M1191.07,1764.29c20.64,0,20.64-33.56,0-33.56c0,0-82.13-22.92-84.52-22.92s-90.1,2.46-90.1,2.46
			c-11.58,16.07-7.72,38.75-6.5,56.21L1191.07,1764.29z"/>
		<path class="st15" d="M723.69,1764.94c-1.52-17.38-3.99-35.9,8.01-51.7c20.45-7.52,59.12-24.9,98.95-2.43c0,0,0.77,11.23,31.66,24
			c7.68,8.72,10.77,17.5,7.27,30.13H723.69z"/>
		<path class="st8" d="M1013.15,1707.8l86.63-445.31l-255.73-43.35l0-122.1c0,0,199.57,0.14,196.79,0.14
			c-8.77,0,187.62-13.57,215.13,93.05c27.51,106.62-139.24,516.26-139.24,516.26c-23.82-3.27-78.68,13.25-99.14,19.67
			C1000.11,1731.65,995.31,1721.7,1013.15,1707.8z"/>
		<path class="st8" d="M997.38,1097.18l-192.75,157.37l15.9,455.37c-50.85-28.05-106.56,25.43-110.84,19.28
			c0,0-6.16-2.95,4.07-27.32c-19.5-98.03-90.58-465.47-68.45-506.33c25.57-47.2,68.46-101.14,68.46-101.14L997.38,1097.18z"/>
		<path class="st17" d="M734.6,690.67c2.95,11.8,37.8,361.69,34.85,414.8c-2.95,53.11-132.33,64.78-129.81,174.07
			c2.67,116.08,6.18,166.37,6.18,166.37c-47.95-7.02-73.68-63.15-80.7-101.75c-11.01-67.01-3.13-143.19,46.78-239.75
			c0,0,13.33-365.33,29.94-377.15C671.49,706.16,734.6,690.67,734.6,690.67z"/>
		<path class="st20" d="M708.62,847.82c0,0-16.6,48.46-16.6,68.54c0,20.08,97.19,62.27,97.19,62.27H630.45V903.5L708.62,847.82z"/>
		<g>
			<path class="st21" d="M796.78,993.67c0,0,19.05-17.21,49.25-19.6s56.69,55.08,56.69,55.08H798.22L796.78,993.67z"/>
			<path class="st21" d="M854.05,974.78c0,0,47.53,13.44,54.16,15.2c3.1,12.54-29.61,7.13-44.74,1.55
				C846.8,985.4,854.05,974.78,854.05,974.78z"/>
		</g>
		<path class="st17" d="M645.57,723.6c-29.03,18-109.02,206.62-109.78,257.38c-0.34,22.39,9.05,44.57,51.57,47.3
			c23.48,1.51,222.79,3.22,222.79,3.22l-2.54-52.87l-150.23-42.88l45.89-76.15C758.15,831.35,711.15,688.57,645.57,723.6z"/>
		<g>
			<g>
				<path class="st13" d="M1161.53,722.77c0,0-18.4-45.02-16.14-57.29c2.26-12.27,47.51-28.12,49.75-22.68
					c2.24,5.45,6.94,18.88-22.68,26.96C1192.31,688.06,1214.59,724.51,1161.53,722.77z"/>
				<g>
					<path class="st13" d="M1159.14,724.81c0,0-3.76-40.6,2.83-56.94c8.77-21.76,34.68-35.75,34.68-35.75s45.82,35.96,47.22,42.46
						c1.4,6.5-36.77,46.32-36.77,46.32S1178.66,747.92,1159.14,724.81z"/>
					<path class="st13" d="M1164.57,671.55c0,0,11.2-101.3,27.17-98.36c7.36,1.36-3,98.09-3,98.09L1164.57,671.55z"/>
					<path class="st14" d="M1156.39,710c0.1,0.03,0.22,0.03,0.33-0.01c0.28-0.1,0.43-0.41,0.33-0.69
						c-4.72-13.25-12.44-36.54-11.12-43.71c1.74-9.46,31.38-21.9,44.16-23.23c3.81-0.4,4.45,0.4,4.55,0.66
						c1.48,3.59,2.68,7.89,0.41,12.51c-2.84,5.76-10.48,10.38-22.73,13.72l-0.95,0.26l0.72,0.66c8.24,7.59,18.09,19.54,21.02,30.29
						c0.08,0.29,0.38,0.46,0.67,0.38c0.29-0.08,0.46-0.38,0.38-0.67c-2.9-10.66-12.42-22.43-20.62-30.14
						c12.01-3.41,19.57-8.13,22.48-14.03c2.8-5.68,0.57-11.09-0.37-13.4c-0.51-1.24-2.36-1.67-5.67-1.33
						c-12.96,1.35-43.24,13.89-45.12,24.11c-1.37,7.42,6.41,30.93,11.17,44.28C1156.09,709.83,1156.23,709.96,1156.39,710z"/>
					<path class="st14" d="M1211.47,690.77c0.15,0.04,0.31,0.08,0.46,0.12l0.37,0.09l0.21-0.33c6.5-10.26,22.02-14.4,22.18-14.44
						c0.29-0.08,0.47-0.37,0.39-0.66c-0.07-0.29-0.37-0.47-0.66-0.39c-0.65,0.17-15.76,4.2-22.61,14.58c-0.02,0-0.03-0.01-0.05-0.01
						c-9.74-2.8-23.42-25.83-23.56-26.07c-0.15-0.26-0.48-0.34-0.74-0.19c-0.26,0.15-0.34,0.49-0.19,0.74
						C1187.84,665.19,1201.31,687.84,1211.47,690.77z"/>
				</g>
			</g>
			<polygon class="st13" points="1160.91,711.79 1144.32,775.03 1195.46,791.44 1201.72,719.23 			"/>
		</g>
		<path class="st17" d="M1004.15,742.77l104.57,105.05l46.52-120.79l60.86,19.16c0,0-0.74,176.52-53.55,214.54
			c-80.87,49.4-219.44-101.34-219.44-101.34C888.92,783.59,971.73,698.8,1004.15,742.77z"/>
		<path class="st17" d="M888.63,695.03c0,0,27.94,383.78,78.09,416.23c50.16,32.45,227.4,10.35,227.4,10.35
			s-176.84-63.36-179.79-110.56c-2.95-47.21-14.37-272.21-14.37-272.21C983.54,718.69,931.43,694.81,888.63,695.03z"/>
		<g>
			<defs>
				<path id="SVGID_1_" d="M870.86,682.95l11.32,101.5c0,0-51.37,96.26-17.5,121.37c33.86,25.11,65.06-1.9,74.19-64.68
					s-24.73-178.45-54.79-200.9c-30.06-22.45-139.26-20.55-149.91-7.61c-10.65,12.94-117.24,251.35-75.25,300.23
					c41.99,48.88,177.36,4.39,177.36,4.39l-21.94-141.64l-59.54-41.99c0,0-3.5-77.04-3.09-75.82c0.41,1.22,8.3-37.75,8.3-37.75
					c37.4-10.81,65.71-12.16,102.61,2.75L870.86,682.95z"/>
			</defs>
			<clipPath id="SVGID_00000179648518901054463870000006559390620180956044_">
				<use xlink:href="#SVGID_1_"  style="overflow:visible;"/>
			</clipPath>
			<g style="clip-path:url(#SVGID_00000179648518901054463870000006559390620180956044_);">
				
					<ellipse transform="matrix(0.1815 -0.9834 0.9834 0.1815 -126.9956 1597.5867)" class="st23" cx="896.21" cy="875.08" rx="30.04" ry="16.93"/>
				<path class="st24" d="M896.93,874.11c-1.96,10.63,1.31,20.14,7.3,21.25c5.99,1.11,12.44-6.61,14.4-17.24
					c1.96-10.63-1.31-20.14-7.3-21.25C905.33,855.76,898.89,863.48,896.93,874.11z"/>
				<path class="st8" d="M903.31,853.08c1.39,0,2.54-1.11,2.58-2.51c0.02-0.59,1.46-59.55-7.29-121.28
					c-8.11-57.15-55.71-84.82-96.5-86.34c-39.55-1.48-70.05,20.14-77.69,55.05c-6.87,31.43,2.03,85.04,2.41,87.31
					c0.24,1.4,1.56,2.36,2.97,2.11c1.4-0.24,2.35-1.57,2.11-2.97c-0.09-0.55-9.12-54.9-2.46-85.35c7.08-32.36,35.55-52.37,72.45-51
					c38.72,1.44,83.9,27.69,91.59,81.91c8.69,61.29,7.26,119.84,7.25,120.42c-0.04,1.42,1.09,2.61,2.51,2.65
					C903.26,853.08,903.28,853.08,903.31,853.08z"/>
				<path class="st8" d="M704.56,932.91l16.37-2.1c1.41-0.18,2.41-1.47,2.23-2.89c-0.18-1.41-1.48-2.41-2.89-2.23l-12.39,1.59
					c-16.82-43.55-17.79-90.33-2.23-114.32c7.67-11.83,18.99-18.15,33.65-18.76c13.74-0.59,25.84,3.96,36,13.49
					c30.92,29,35.9,95.9,36.62,110.26l-9.38-0.36c-1.39-0.1-2.62,1.05-2.67,2.48c-0.05,1.42,1.05,2.62,2.48,2.67l14.9,0.57
					l-0.06-2.74c-0.07-3.36-2.21-82.73-38.35-116.64c-11.21-10.52-24.58-15.53-39.75-14.88c-16.42,0.69-29.12,7.79-37.76,21.11
					c-8.65,13.34-12.73,32.56-11.81,55.57c0.84,21.05,5.93,44.25,14.3,65.32L704.56,932.91z"/>
				<path class="st23" d="M749.38,785.64l-0.14,12.72c0,0-14.44-5.72-28.86,3.62c-3.69-5.1-6.29-8.94-6.29-8.94
					S725.62,780.55,749.38,785.64z"/>
				<path class="st23" d="M738.57,790.12l-2.78-14.48c-4.03-2.2-12.67,0.14-13.99,3.28l3.2,14.09L738.57,790.12z"/>
			</g>
		</g>
		<path class="st25" d="M945.59,978.96c16.8-1.71,52.12-23.66,60.55-30.92l102.59,82.96H949.77L945.59,978.96z"/>
		<path class="st26" d="M1093.72,1031.25c-4.31,0-132.77-78.37-132.77-78.37c-28.24,23.35-57.78,34.71-87.65,43.1
			c8.73,17.34,21.51,29.02,35.76,35.52L1093.72,1031.25z"/>
		<g>
			
				<rect x="454.81" y="1006.31" transform="matrix(-1 -1.224647e-16 1.224647e-16 -1 1068.1219 2037.2584)" class="st27" width="158.5" height="24.63"/>
			
				<rect x="319.87" y="1006.31" transform="matrix(-1 -1.224647e-16 1.224647e-16 -1 774.6858 2037.2584)" class="st26" width="134.94" height="24.63"/>
			<polygon class="st26" points="591.89,1014.35 464.99,1014.35 523.89,1026.13 			"/>
		</g>
	</g>
	<g id="table">
		<g>
			<rect x="503.74" y="1061.17" class="st19" width="26.63" height="698.42"/>
			<rect x="503.74" y="1061.45" class="st19" width="26.63" height="59.96"/>
			
				<rect x="1709.79" y="1641.25" transform="matrix(-1 -1.224647e-16 1.224647e-16 -1 3446.2095 3403.7532)" class="st19" width="26.64" height="121.26"/>
			
				<rect x="1549.49" y="1641.25" transform="matrix(-1 -1.224647e-16 1.224647e-16 -1 3125.6077 3403.7532)" class="st19" width="26.64" height="121.26"/>
			<polygon class="st19" points="278.52,1053.7 278.52,1763.49 253.19,1759.48 253.19,1053.7 			"/>
			
				<rect x="1215.58" y="1641.25" transform="matrix(-1 -1.224647e-16 1.224647e-16 -1 2457.7979 3403.7532)" class="st19" width="26.64" height="121.26"/>
			
				<rect x="1355.42" y="1641.25" transform="matrix(-1 -1.224647e-16 1.224647e-16 -1 2737.4797 3403.7532)" class="st19" width="26.64" height="121.26"/>
			<g>
				
					<rect x="180.37" y="1031.11" transform="matrix(-1 -1.224647e-16 1.224647e-16 -1 1646.6071 2092.22)" class="st19" width="1285.87" height="30.01"/>
				<g>
					<rect x="1205.86" y="1058.54" class="st19" width="164.59" height="584.62"/>
					<g>
						<rect x="1347.59" y="1058.54" class="st19" width="404.89" height="584.62"/>
						<rect x="1367.74" y="1078.83" class="st28" width="373.74" height="564.34"/>
					</g>
				</g>
				
					<rect x="467.2" y="1031.11" transform="matrix(-1 -1.224647e-16 1.224647e-16 -1 2220.2673 2092.22)" class="st28" width="1285.87" height="30.01"/>
			</g>
		</g>
		<g>
			<g>
				<polygon class="st29" points="1526.5,1031.11 1597.44,1031.11 1583.46,909.8 1512.51,909.8 				"/>
				<polygon class="st30" points="1505.86,909.8 1505.91,910.29 1513.47,975.82 1519.84,1031.1 1590.8,1031.1 1577.8,918.32 
					1577.75,917.98 1576.81,909.8 				"/>
				
					<rect x="1423.39" y="1018.45" transform="matrix(-1 -1.224647e-16 1.224647e-16 -1 3072.1208 2049.3308)" class="st29" width="225.35" height="12.42"/>
				<rect x="1407.65" y="1018.45" class="st30" width="180.34" height="12.42"/>
				<polygon class="st31" points="1505.91,910.29 1513.47,975.82 1577.8,918.32 1578.13,918.02 1577.75,917.98 				"/>
				<g>
					<g>
						<path class="st29" d="M1325.18,917.6h384.96c8.39,0,15.74-6.8,16.43-15.18l21.99-267.39c0.69-8.39-5.55-15.18-13.93-15.18
							h-384.96c-8.39,0-15.74,6.8-16.43,15.18l-21.99,267.39C1310.55,910.8,1316.79,917.6,1325.18,917.6z"/>
					</g>
					<g>
						<path class="st30" d="M1318.05,917.26h384.96c8.39,0,15.74-6.8,16.43-15.18l21.99-267.39c0.69-8.39-5.55-15.18-13.93-15.18
							h-384.96c-8.39,0-15.74,6.8-16.43,15.18l-21.99,267.39C1303.42,910.47,1309.66,917.26,1318.05,917.26z"/>
					</g>
					<polygon class="st32" points="1326.5,895.39 1700.28,895.39 1720.64,640.36 1346.87,640.36 					"/>
				</g>
			</g>
			<g>
				<rect x="1239.16" y="1018.45" class="st29" width="117.83" height="12.43"/>
				<polygon class="st30" points="1115.9,1026.1 1115.9,1030.88 1239.16,1030.88 1239.16,1018.45 				"/>
			</g>
		</g>
		<g>
			<g>
				<path class="st33" d="M1392.59,851.22l256.29-3.1c10.77-0.13,20.16-9.25,20.97-20.37l9.55-131.16
					c0.81-11.12-7.27-20.03-18.04-19.9l-256.29,3.1c-10.77,0.13-20.16,9.25-20.97,20.37l-9.55,131.16
					C1373.75,842.44,1381.82,851.35,1392.59,851.22z"/>
				<path class="st32" d="M1414.77,734.27l75.27-0.91c2.37-0.03,4.44-2.04,4.62-4.48l0,0c0.18-2.45-1.6-4.41-3.97-4.38l-75.27,0.91
					c-2.37,0.03-4.44,2.04-4.62,4.48l0,0C1410.62,732.34,1412.4,734.3,1414.77,734.27z"/>
				<path class="st32" d="M1413.01,758.48l100.28-1.21c2.37-0.03,4.44-2.04,4.62-4.48l0,0c0.18-2.45-1.6-4.41-3.97-4.38
					l-100.28,1.21c-2.37,0.03-4.44,2.04-4.62,4.48l0,0C1408.86,756.55,1410.64,758.51,1413.01,758.48z"/>
				<path class="st32" d="M1410.93,787l100.28-1.21c2.37-0.03,4.44-2.04,4.62-4.48l0,0c0.18-2.45-1.6-4.41-3.97-4.38l-100.28,1.21
					c-2.37,0.03-4.44,2.04-4.62,4.48l0,0C1406.78,785.07,1408.56,787.03,1410.93,787z"/>
				<path class="st32" d="M1408.86,815.51l100.28-1.21c2.37-0.03,4.44-2.04,4.62-4.48l0,0c0.18-2.45-1.6-4.41-3.97-4.38
					l-100.28,1.21c-2.37,0.03-4.44,2.04-4.62,4.48l0,0C1404.71,813.58,1406.48,815.54,1408.86,815.51z"/>
			</g>
			<g>
				<path class="st32" d="M1604.58,736.06c-7.78,6.7-13.25,55.12-3.15,68.71c4.63,6.22,12.61,6.29,19.54,8.04
					c8.21,2.07,14.81,11.25,18.22,6.89c6.29-8.04,7.82-40.35-2.65-61.25C1632.9,751.18,1612.37,729.36,1604.58,736.06z"/>
				<path class="st32" d="M1572.16,736.06c7.78,6.7,13.25,55.12,3.15,68.71c-4.63,6.22-12.61,6.29-19.54,8.04
					c-8.21,2.07-14.81,11.25-18.22,6.89c-6.29-8.04-7.82-40.35,2.65-61.25C1543.84,751.18,1564.38,729.36,1572.16,736.06z"/>
				<path class="st32" d="M1584.16,754.6v-51.27h7.27v50.51h0c0,0.42,0.22,10.31,10.24,12.52l-1.21,5.49
					c-6.66-1.47-10.5-5.5-12.56-9.64c-2.02,4.27-5.89,8.51-12.75,10.02l-1.21-5.49C1583,764.75,1584.04,756.49,1584.16,754.6z"/>
			</g>
		</g>
	</g>
	<g id="lady">
		<g>
			<g>
				<g>
					<g>
						<g>
							
								<rect x="1767.71" y="1675.23" transform="matrix(-1 -1.224647e-16 1.224647e-16 -1 3562.2129 3400.3232)" class="st8" width="26.79" height="49.86"/>
							
								<rect x="1968.61" y="1675.23" transform="matrix(-1 -1.224647e-16 1.224647e-16 -1 3964.0095 3400.3232)" class="st8" width="26.79" height="49.86"/>
							
								<rect x="2193.16" y="1675.23" transform="matrix(-1 -1.224647e-16 1.224647e-16 -1 4413.0996 3400.3232)" class="st8" width="26.79" height="49.86"/>
							<g>
								<g>
									<ellipse class="st8" cx="2199.9" cy="1724.93" rx="20.43" ry="32.3"/>
									<ellipse class="st8" cx="2180.1" cy="1724.93" rx="20.43" ry="32.3"/>
									<path class="st8" d="M2172.22,1754.62c8.5,6.63,32.26,3.63,35.58,0.2l0.15-59.59c-6.38-5.58-28.87-5.39-35.72-0.31
										L2172.22,1754.62z"/>
									<ellipse class="st9" cx="2178.17" cy="1724.06" rx="14" ry="22.14"/>
								</g>
								<ellipse class="st8" cx="2179.66" cy="1724.69" rx="8.53" ry="13.49"/>
							</g>
							<g>
								<g>
									<ellipse class="st8" cx="1986.04" cy="1724.93" rx="20.43" ry="32.3"/>
									<ellipse class="st8" cx="2005.84" cy="1724.93" rx="20.43" ry="32.3"/>
									<path class="st8" d="M2013.72,1754.62c-8.5,6.63-32.26,3.63-35.58,0.2l-0.15-59.59c6.38-5.58,28.87-5.39,35.72-0.31
										L2013.72,1754.62z"/>
									<ellipse class="st9" cx="2007.77" cy="1724.06" rx="14" ry="22.14"/>
								</g>
								<ellipse class="st8" cx="2006.29" cy="1724.69" rx="8.53" ry="13.49"/>
							</g>
							<g>
								<g>
									<ellipse class="st8" cx="1781.99" cy="1724.93" rx="20.43" ry="32.3"/>
									<ellipse class="st8" cx="1801.79" cy="1724.93" rx="20.43" ry="32.3"/>
									<path class="st8" d="M1809.67,1754.62c-8.5,6.63-32.26,3.63-35.58,0.2l-0.15-59.59c6.38-5.58,28.87-5.39,35.72-0.31
										L1809.67,1754.62z"/>
									<ellipse class="st9" cx="1803.72" cy="1724.06" rx="14" ry="22.14"/>
								</g>
								<ellipse class="st8" cx="1802.24" cy="1724.69" rx="8.53" ry="13.49"/>
							</g>
							
								<rect x="1958.55" y="1260.23" transform="matrix(-1 -1.224647e-16 1.224647e-16 -1 3956.1199 2926.8633)" class="st8" width="39.02" height="406.4"/>
							<path class="st10" d="M1749.13,1680.14c-0.05-0.34-0.31-0.66-0.31-1c0-21.51,106.37-38.95,237.58-38.95
								c131.21,0,237.58,17.44,237.58,38.95c0,0.34-0.26,0.66-0.31,1H1749.13z"/>
							<rect x="1947.05" y="1303.51" class="st10" width="63.43" height="77.36"/>
							<rect x="1947.05" y="1575.79" class="st10" width="63.43" height="77.36"/>
						</g>
						<g>
							<path class="st11" d="M2097.25,653.3v0.08c0.84-0.08,1.68-0.08,2.52-0.08H2097.25z"/>
							<g>
								<path class="st7" d="M2366.93,652.17c0,0-0.04,0-0.17-0.04c-0.54-0.04-2.1-0.08-4.57-0.12c-2.68-0.04-6.25-0.08-10.52-0.08
									c-56.38-0.25-240.28,1.38-240.28,1.38c-0.84,0-1.72,0-2.6,0.08c-29.22,1.3-57.76,24.36-64.56,52.57
									c0,0-80.09,396.93-115.63,431.1c-35.51,34.12-157.32,30.81-157.32,30.81c-26.87,0-50.68,15.85-58.27,39.03
									c-1.68,5.03-2.56,10.4-2.56,16.01c0,15.8,6.67,30.1,17.4,40.45c10.69,10.35,25.45,16.77,41.84,16.77h270.88l175.84,3.56
									c40.03,1.09,75.33-25.82,85.05-64.56c0.92-2.39,1.63-4.82,2.22-7.29l93.09-508.19c0.96-4.11,1.43-8.09,1.43-11.95
									C2398.2,671.87,2385.96,656.36,2366.93,652.17z M2260.84,1169.54l-2.18,2.93l1.55-6.75h3.44L2260.84,1169.54z"/>
							</g>
						</g>
						<path class="st10" d="M2250.72,1280.31c0.05,0.25,0.29,0.5,0.29,0.75c0,16.17-139.81,29.28-264.91,29.28
							c-125.11,0-226.52-13.11-226.52-29.28c0-0.25,0.24-0.5,0.29-0.75H2250.72z"/>
					</g>
				</g>
				<path class="st5" d="M2398.2,691.7c0,3.86-0.46,7.84-1.43,11.95c-3.51,10.17-90.45,506.03-95.31,515.47
					c-9.73,38.75-45.02,65.66-85.06,64.57c-104.1-3.36-340.6-4.2-446.73-3.56c-37.83,0.78-68.66-36.87-56.67-73.23
					c-13.06,61.65,494.95,69.2,548.15-11.59c37.84-28.32,16.92-566.39,105.76-543.13C2385.96,656.36,2398.2,671.87,2398.2,691.7z"/>
			</g>
		</g>
		<g>
			<path class="st34" d="M2121.35,643.05c49.83,350.84-283.05,300.12-273.41,158.9c8.3-121.66,81.92-135.89,62.74-215.66
				c-21.06-87.56,10.11-164.17,93.12-164.17c81.28,0,129.93,59.23,112.57,162.23C2112.92,604.78,2119.24,626.12,2121.35,643.05z"/>
			<path class="st35" d="M1809.39,1625.25c0.61,3.48,12.12,70.74,12.12,70.74l46.27-3.97l6.71-82.42L1809.39,1625.25z"/>
			<path class="st8" d="M2103.77,1066.76c0,0,38.71,108.77-25.28,127.41c-63.99,18.64-171.04,25.71-171.04,25.71l-34.57,430.28
				c-12.81,5.1-26.55,9.64-58.52,3.12c0,0-78.76-433.14-56.04-485.06c22.72-51.93,200.42-104.72,200.42-104.72L2103.77,1066.76z"/>
			<path class="st17" d="M1881.75,1703.26c-3.44,8.84-30.1,21.4-59.94,30.56c-20.39,6.27-42.27,10.94-59.23,11.75
				c-10.59,0.51-19.26-0.48-24.45-3.54c0,0-13.17-34.06,16.09-52.83c29.25-18.78,62.27-22.53,62.27-22.53
				c4.22,6.03,11.07,9.99,19.53,10.98c5.66,0.66,12.05-0.01,18.86-2.28c5.47-1.82,11.21-4.67,17.06-8.7c0,0,2.67,2.81,5.42,7.41
				c0.28,0.45,0.55,0.91,0.82,1.39C1882.01,1682.37,1885.54,1692.55,1881.75,1703.26z"/>
			<path class="st36" d="M1879.56,1674.04l-1.38,1.43l-56.37,58.35c-20.39,6.27-42.27,10.94-59.23,11.75
				c-1.16-10.73-0.68-33.47,20.03-49.58c12.76-9.92,34.03-15.36,53.41-18.34c6.65-1.02,13.08-1.76,18.86-2.28
				c10.4-0.94,18.71-1.22,22.48-1.29C1878.78,1674.04,1879.56,1674.04,1879.56,1674.04z"/>
			<path class="st35" d="M1852.8,1635.86c0.61,3.48,5.55,70.7,5.55,70.7l39.72-0.5l11.39-71.58L1852.8,1635.86z"/>
			<path class="st17" d="M1905.83,1662.8c0,0,13.94,26.98,17.03,33.83c-15.55,45.39-121.78,80.73-132.77,67.1
				c0,0-19.81-30.67,5.03-54.99c24.84-24.32,60.73-35.59,60.73-35.59C1867.68,1684.3,1898.61,1681.26,1905.83,1662.8z"/>
			<path class="st8" d="M2209.1,1082.14c0,0,20.95,94.77-58.83,120.45c-63.44,20.42-172.49,62.09-172.49,62.09l-69.23,385.6
				c-2.91,8.2-49.03,11.25-54.89,4.66c0,0-16.08-424.48,15.83-471.33c48.98-71.92,115.38-115.89,115.38-115.89
				C2052.06,1060.01,2150.04,1052.81,2209.1,1082.14z"/>
			<path class="st37" d="M1852.1,1655c-0.76-17.07-18.12-418.67,16.07-472.24c8.89-13.92,19.58-27.96,31.8-41.72l2.35,2.09
				c-12.1,13.64-22.7,27.54-31.5,41.33c-33.66,52.74-15.76,466.24-15.58,470.41L1852.1,1655z"/>
			<g>
				<path class="st35" d="M1947.92,729.86c32.81-40.25,57.26-16.3,55.8,28.92s-32.02,242.31-68.61,228.77
					C1898.52,974.01,1906.74,780.38,1947.92,729.86z"/>
				<path class="st38" d="M1972.33,904.76l-22,153.52c2.15,7.89,14.05,14.58,31.87,19.83c2.81,0.84,5.78,1.63,8.87,2.39
					c0,0,0.01,0.01,0.01,0c60.72,14.89,172.45,15.78,220.97-3.57c0,0-3.77-26-19.24-67.7c-11.76-31.69-30.28-72.47-59.04-117.8
					c-1.83-13.45,9.53-37.2,20.89-64.42c18.09-43.35,36.19-95.52,1.08-129.05c-57.16-54.6-206.68-39.11-216.5,68.9
					C1937.74,836.72,1972.33,904.76,1972.33,904.76z"/>
				<path class="st39" d="M1974.21,1088.83c1.04-0.17,7.18-3.35,16.86-8.34c0,0,0.01,0.01,0.01,0
					c41.37-21.3,147.45-75.76,196.79-71.35c1.75,0.15,3.39,0.18,4.94,0.09c-11.76-31.69-30.28-72.47-59.04-117.8
					c-1.83-13.45,9.53-37.2,20.89-64.42l-64.58-73.31c0,0,0.23,1.67,0.63,4.69c3.45,26.41,19.85,156.46,11,177.45
					c-8.11,19.21-92.62,110.72-119.51,142.28C1976.36,1084.97,1973.23,1088.99,1974.21,1088.83z"/>
				<g>
					<g>
						<path class="st35" d="M1990.04,706.94c1.89,13,18.63,47.54,18.63,47.54s69.26-43.03,66.8-59.98l-11.24-45.44l-7.33-29.55
							l-70.57,10.27l2.44,50.48L1990.04,706.94z"/>
						<polygon class="st40" points="1988.76,680.26 2038.06,647.26 1986.32,629.78 						"/>
					</g>
					<path class="st35" d="M1924.2,537.61c-3.99,63.21,31.79,115.34,79.91,116.44c48.12,1.1,86.25-49.34,85.16-112.66
						c-1.03-59.66-36.87-106.34-80.12-107.33C1965.91,433.07,1927.96,478.06,1924.2,537.61z"/>
					<path class="st34" d="M1983.29,493.21c60.09,77.03,146.65,46.4,126.71,0.33c0,0-23.2-63.46-93.31-64.49
						C1929.01,427.77,1983.29,493.21,1983.29,493.21z"/>
					<path class="st41" d="M2000.12,583.85c-2.25-0.05-4.42-0.58-5.66-2.14c-3.05-3.83,5.15-22.56,6.82-26.27
						c0.21-0.47,0.76-0.67,1.22-0.46c0.47,0.21,0.67,0.76,0.46,1.22c-3.97,8.81-8.78,22.2-7.06,24.36c2.01,2.53,8.94,1.1,11.43,0.34
						c0.49-0.15,1,0.12,1.15,0.61c0.15,0.49-0.12,1-0.61,1.15C2007.25,582.86,2003.59,583.93,2000.12,583.85z"/>
					<path class="st41" d="M1987.11,605.58c0,0,26.83,8.2,62.22-10.12C2029.86,623.53,2004.4,641.05,1987.11,605.58z"/>
					<g>
						<path class="st34" d="M2044,549.01c-0.11,4.66-2.06,8.39-4.37,8.34c-2.31-0.05-4.09-3.87-3.98-8.53
							c0.11-4.66,2.06-8.39,4.37-8.34C2042.33,540.53,2044.11,544.35,2044,549.01z"/>
					</g>
					<g>
						<path class="st34" d="M1963.5,545.32c-0.11,4.66-2.06,8.39-4.37,8.34c-2.31-0.05-4.09-3.87-3.98-8.53
							c0.11-4.66,2.06-8.39,4.37-8.34C1961.82,536.85,1963.6,540.67,1963.5,545.32z"/>
					</g>
					<path class="st34" d="M1982.91,478.65c0,0-10.67,58.6-60.27,62.48c-33.18,2.6,15.09-97.03,46.67-95.09
						C1987.93,447.19,1982.91,478.65,1982.91,478.65z"/>
				</g>
				<path class="st35" d="M2167.06,721.09c0,0-25.79-28.06-67.3,3.14c-33.98,25.54,23.45,188.32,23.45,188.32l-169.4,160.82
					l12.98,16.36c0,0,202.73-85,228.54-152.18C2204.19,895.03,2186.98,750.78,2167.06,721.09z"/>
				<path class="st35" d="M1970.47,928.92l9.2,158.99l-21.87,3.66c0,0-47.31-109.12-45.16-170.75
					C1914.53,866.81,1977.05,879.72,1970.47,928.92z"/>
				<path class="st35" d="M1981.87,1078.02c0,0,23.98,14.34,12.44,24.07c-11.54,9.72-53.12,9.15-41.24-16.73
					C1964.95,1059.48,1981.87,1078.02,1981.87,1078.02z"/>
				<path class="st35" d="M1953.7,1070.68c-1.87-0.37-43.54,29.19-30.98,42.02c12.56,12.83,75.35-25.66,62.94-41.34
					C1973.24,1055.67,1953.7,1070.68,1953.7,1070.68z"/>
			</g>
		</g>
	</g>
</g>
</svg>
